<svg width="24" height="16" viewBox="0 0 24 16" fill="none" xmlns="http://www.w3.org/2000/svg">
<path d="M9.63917 11.4138L15.519 8.01501L9.63917 4.61626V11.4138ZM22.7357 2.54302C22.883 3.07549 22.9849 3.78923 23.0529 4.69557C23.1322 5.6019 23.1662 6.38361 23.1662 7.06336L23.2342 8.01501C23.2342 10.4961 23.0529 12.3201 22.7357 13.487C22.4525 14.5066 21.7954 15.1637 20.7757 15.4469C20.2433 15.5942 19.269 15.6962 17.7735 15.7642C16.3007 15.8435 14.9525 15.8775 13.7063 15.8775L11.905 15.9454C7.15808 15.9454 4.20117 15.7642 3.03426 15.4469C2.01464 15.1637 1.35754 14.5066 1.07432 13.487C0.927037 12.9545 0.825074 12.2408 0.757099 11.3345C0.677795 10.4281 0.643807 9.64641 0.643807 8.96666L0.575832 8.01501C0.575832 5.53392 0.757099 3.70993 1.07432 2.54302C1.35754 1.5234 2.01464 0.866307 3.03426 0.583078C3.56673 0.435799 4.54104 0.333836 6.03649 0.265861C7.50928 0.186557 8.85745 0.15257 10.1037 0.15257L11.905 0.0845947C16.6519 0.0845947 19.6088 0.265861 20.7757 0.583078C21.7954 0.866307 22.4525 1.5234 22.7357 2.54302Z" fill="white"/>
</svg>
