<svg width="24" height="24" viewBox="0 0 24 24" fill="none" xmlns="http://www.w3.org/2000/svg">
<path d="M6.96654 0.685669H16.483C20.1084 0.685669 23.054 3.63125 23.054 7.25659V16.7731C23.054 18.5158 22.3617 20.1871 21.1294 21.4194C19.8971 22.6517 18.2258 23.344 16.483 23.344H6.96654C3.34121 23.344 0.395622 20.3984 0.395622 16.7731V7.25659C0.395622 5.51387 1.08791 3.84253 2.3202 2.61025C3.55249 1.37796 5.22382 0.685669 6.96654 0.685669ZM6.73996 2.9515C5.65827 2.9515 4.62089 3.3812 3.85602 4.14607C3.09115 4.91093 2.66146 5.94832 2.66146 7.03V16.9997C2.66146 19.2542 4.48545 21.0782 6.73996 21.0782H16.7096C17.7913 21.0782 18.8287 20.6485 19.5936 19.8836C20.3584 19.1187 20.7881 18.0814 20.7881 16.9997V7.03C20.7881 4.7755 18.9641 2.9515 16.7096 2.9515H6.73996ZM17.6726 4.65088C18.0482 4.65088 18.4084 4.80008 18.674 5.06566C18.9395 5.33124 19.0887 5.69144 19.0887 6.06702C19.0887 6.44261 18.9395 6.80281 18.674 7.06839C18.4084 7.33397 18.0482 7.48317 17.6726 7.48317C17.297 7.48317 16.9368 7.33397 16.6712 7.06839C16.4057 6.80281 16.2565 6.44261 16.2565 6.06702C16.2565 5.69144 16.4057 5.33124 16.6712 5.06566C16.9368 4.80008 17.297 4.65088 17.6726 4.65088ZM11.7248 6.35025C13.2271 6.35025 14.6679 6.94705 15.7303 8.00937C16.7926 9.07169 17.3894 10.5125 17.3894 12.0148C17.3894 13.5172 16.7926 14.958 15.7303 16.0203C14.6679 17.0826 13.2271 17.6794 11.7248 17.6794C10.2224 17.6794 8.78164 17.0826 7.71932 16.0203C6.65701 14.958 6.06021 13.5172 6.06021 12.0148C6.06021 10.5125 6.65701 9.07169 7.71932 8.00937C8.78164 6.94705 10.2224 6.35025 11.7248 6.35025ZM11.7248 8.61609C10.8234 8.61609 9.9589 8.97417 9.32151 9.61156C8.68412 10.2489 8.32604 11.1134 8.32604 12.0148C8.32604 12.9162 8.68412 13.7807 9.32151 14.4181C9.9589 15.0555 10.8234 15.4136 11.7248 15.4136C12.6262 15.4136 13.4907 15.0555 14.1281 14.4181C14.7655 13.7807 15.1235 12.9162 15.1235 12.0148C15.1235 11.1134 14.7655 10.2489 14.1281 9.61156C13.4907 8.97417 12.6262 8.61609 11.7248 8.61609Z" fill="white"/>
</svg>
