<svg width="25" height="21" viewBox="0 0 25 21" fill="none" xmlns="http://www.w3.org/2000/svg">
<path d="M24.3853 3.21749C23.513 3.61401 22.5726 3.87459 21.5983 3.99921C22.5953 3.39876 23.3657 2.44711 23.7282 1.30286C22.7879 1.86932 21.7456 2.26584 20.6467 2.49243C19.7517 1.51812 18.4941 0.95166 17.0667 0.95166C14.4043 0.95166 12.2291 3.12686 12.2291 5.81187C12.2291 6.19706 12.2744 6.57093 12.3537 6.92213C8.32054 6.71821 4.7292 4.78092 2.33874 1.84666C1.91956 2.5604 1.68165 3.39876 1.68165 4.28244C1.68165 5.97048 2.53134 7.46593 3.84552 8.31562C3.04115 8.31562 2.29343 8.08904 1.63633 7.74916V7.78315C1.63633 10.1396 3.31305 12.1109 5.53357 12.5527C4.82065 12.7478 4.07221 12.775 3.34704 12.632C3.65475 13.5978 4.25738 14.4429 5.07022 15.0485C5.88307 15.654 6.86525 15.9896 7.87871 16.0081C6.16078 17.3681 4.03132 18.1032 1.84026 18.0927C1.45507 18.0927 1.06988 18.07 0.684685 18.0247C2.83723 19.4069 5.39762 20.2112 8.13928 20.2112C17.0667 20.2112 21.9722 12.802 21.9722 6.37833C21.9722 6.16308 21.9722 5.95915 21.9609 5.7439C22.9125 5.06415 23.7282 4.20313 24.3853 3.21749Z" fill="white"/>
</svg>
