<svg width="21" height="22" viewBox="0 0 21 22" fill="none" xmlns="http://www.w3.org/2000/svg">
<path d="M18.7154 0.818848C19.3164 0.818848 19.8927 1.05757 20.3176 1.48249C20.7425 1.90742 20.9813 2.48374 20.9813 3.08468V18.9455C20.9813 19.5465 20.7425 20.1228 20.3176 20.5477C19.8927 20.9726 19.3164 21.2113 18.7154 21.2113H2.85459C2.25365 21.2113 1.67733 20.9726 1.2524 20.5477C0.827474 20.1228 0.588753 19.5465 0.588753 18.9455V3.08468C0.588753 2.48374 0.827474 1.90742 1.2524 1.48249C1.67733 1.05757 2.25365 0.818848 2.85459 0.818848H18.7154ZM18.149 18.3791V12.3746C18.149 11.3951 17.7598 10.4557 17.0672 9.76303C16.3746 9.0704 15.4352 8.68129 14.4557 8.68129C13.4927 8.68129 12.3711 9.27041 11.8273 10.1541V8.89654H8.66645V18.3791H11.8273V12.7938C11.8273 11.9214 12.5297 11.2077 13.402 11.2077C13.8227 11.2077 14.2261 11.3748 14.5236 11.6722C14.821 11.9697 14.9881 12.3731 14.9881 12.7938V18.3791H18.149ZM4.98447 7.11787C5.48926 7.11787 5.97337 6.91734 6.33031 6.5604C6.68724 6.20346 6.88777 5.71935 6.88777 5.21456C6.88777 4.16095 6.03808 3.29994 4.98447 3.29994C4.47668 3.29994 3.98968 3.50165 3.63062 3.86072C3.27156 4.21978 3.06984 4.70677 3.06984 5.21456C3.06984 6.26818 3.93086 7.11787 4.98447 7.11787ZM6.55922 18.3791V8.89654H3.42104V18.3791H6.55922Z" fill="white"/>
</svg>
