<svg width="21" height="22" viewBox="0 0 21 22" fill="none" xmlns="http://www.w3.org/2000/svg">
<path d="M2.66458 0.818848H18.5254C19.1263 0.818848 19.7027 1.05757 20.1276 1.48249C20.5525 1.90742 20.7912 2.48374 20.7912 3.08468V18.9455C20.7912 19.5465 20.5525 20.1228 20.1276 20.5477C19.7027 20.9726 19.1263 21.2113 18.5254 21.2113H2.66458C2.06364 21.2113 1.48732 20.9726 1.06239 20.5477C0.637464 20.1228 0.398743 19.5465 0.398743 18.9455V3.08468C0.398743 2.48374 0.637464 1.90742 1.06239 1.48249C1.48732 1.05757 2.06364 0.818848 2.66458 0.818848ZM17.3925 3.08468H14.5602C13.5086 3.08468 12.5 3.50244 11.7564 4.24606C11.0128 4.98968 10.595 5.99825 10.595 7.04989V9.88218H8.32916V13.2809H10.595V21.2113H13.9937V13.2809H17.3925V9.88218H13.9937V7.61635C13.9937 7.31588 14.1131 7.02772 14.3256 6.81526C14.538 6.60279 14.8262 6.48343 15.1267 6.48343H17.3925V3.08468Z" fill="white"/>
</svg>
